<svg xmlns="http://www.w3.org/2000/svg" width="256" height="256"><path fill-opacity=".016" d="M0 128.004v128.004l128.25-.254 128.25-.254.254-127.75L257.008 0H0v128.004m.485.496c0 70.4.119 99.053.265 63.672.146-35.38.146-92.98 0-128C.604 29.153.485 58.1.485 128.5" fill="#1976D2" fill-rule="evenodd"/><path fill-opacity=".275" d="M150 1.412c0 2.217-4.563 12.2-5.975 13.073-.66.407-1.695.245-2.302-.362-.804-.804-.509-2.16 1.087-4.999 2.939-5.229 2.751-6.364-.394-2.374-3.39 4.302-5.824 4.382-4.897.162l.678-3.087-2.617 1.715c-2.214 1.45-4.121 1.617-12.349 1.079-11.477-.749-16.407.217-20.343 3.988-3.914 3.75-3.634 4.416 1.163 2.763 2.819-.971 7.837-1.316 16.494-1.133 6.843.145 12.445.398 12.449.564.003.166-1.681 1.013-3.744 1.883-2.733 1.154-7.411 1.616-17.25 1.705-15.304.139-16.984.699-20.038 6.686-3.325 6.518-4.27 14.025-2.981 23.705.783 5.888.812 8.827.092 9.547-1.904 1.904-2.573-.427-2.539-8.841.019-4.586-.307-8.126-.724-7.869-1.598.988-3.81 11.032-3.81 17.302v6.556L67.759 77.741 53.518 92.008l35.286 35.296 35.285 35.296-1.538 2.95c-3.5 6.71-.837 14.179 6.085 17.071 4.743 1.982 8.584 1.706 12.442-.895 5.398-3.637 7.922-8.198 7.922-14.315 0-2.911.45-5.571 1-5.911 1.342-.83 1.313 8.047-.035 10.566-1.408 2.631.223 2.443 2.736-.316 3.4-3.733 4.492-6.717 4.433-12.112l-.056-5.138 31.205-31.25 31.206-31.251-36.057-36.249-36.057-36.25 2.313-4.462C152.096 10.391 152.884 1.664 151 .5c-.55-.34-1 .071-1 .912M133.999 16.94c-4.455 2.357-8.001 6.06-5.803 6.06 2.132 0 7.893-2.066 10.571-3.792 1.771-1.141 2.018-1.762 1.128-2.834-1.423-1.715-1.619-1.696-5.896.566M114.1 23.081c-8 2.065-13.156 5.339-16.197 10.285-2.642 4.296-4.09 10.041-3.312 13.14 1.092 4.35 2.903 2.183 3-3.589.05-2.979.807-6.797 1.681-8.483 2.801-5.403 12.338-10.412 19.856-10.428 1.445-.003 3.187-.681 3.872-1.506 1.619-1.95.668-1.888-8.9.581M141 24c-2.401 1.315-5.54 1.929-10 1.956l-6.5.04.335 6.502c.317 6.139.472 6.502 2.782 6.502 1.345 0 2.705.675 3.021 1.5.317.825 1.414 1.5 2.438 1.5 1.244 0 1.67.498 1.286 1.5-.393 1.024.056 1.5 1.414 1.5 1.144 0 2.211.843 2.509 1.982.456 1.743.886 1.854 3.559.923 1.672-.583 3.571-1.7 4.22-2.483 1.829-2.203 2.408-1.802 5.527 3.828 2.498 4.509 2.905 6.311 2.884 12.76-.022 6.575-.49 8.49-3.762 15.38-2.056 4.329-7.327 13.235-11.713 19.792-4.882 7.299-8.6 14.073-9.587 17.47-2.023 6.96-2.071 15.881-.109 20.391 2.343 5.385 17.771 24.282 18.902 23.151 1.598-1.598-1.7-6.607-7.754-11.779-3.08-2.631-6.505-6.558-7.611-8.727-3.573-7.002-3.694-21.051-.218-25.303 1.497-1.832 1.522-1.829.888.115-4.201 12.871-1.011 22.038 10.316 29.65 2.57 1.727 6.146 4.524 7.947 6.215l3.274 3.074 29.977-29.964 29.976-29.963-34.745-34.756c-19.11-19.116-34.973-34.737-35.251-34.714-.278.023-2.08.904-4.005 1.958m-28.259 3.429c-5.14 1.834-6.369 3.031-8.296 8.076-2.41 6.309-1.378 7.32 2.591 2.539a248.879 248.879 0 017.096-8.108c4.018-4.354 3.98-4.423-1.391-2.507m39.262 10.567l-2.133 2.995 3.275 6.653c2.819 5.725 3.332 7.943 3.681 15.913.484 11.076-.747 14.376-11.092 29.721-8.062 11.958-10.194 17.76-10.191 27.722.004 9.76 2.502 14.875 8.739 17.895 7.249 3.509 14.379 2.452 19.17-2.842 2.487-2.748 2.533-8.307.093-11.003-1.895-2.094-7.545-2.88-7.545-1.05 0 .55.675 1 1.5 1 1.914 0 1.964 2.608.064 3.337-2.064.792-6.372-2.942-8.062-6.988-2.076-4.967-2.76-12.105-1.688-17.599 1.266-6.484-.199-5.976-2.883 1-3.079 8.004-3.243 18.989-.341 22.919 1.149 1.557 3.383 3.464 4.964 4.238 2.602 1.274 3.255 1.199 6.91-.794l4.036-2.2-2.138 2.154c-1.296 1.305-3.874 2.349-6.546 2.65-6.066.684-10.129-2.686-11.841-9.819-2.447-10.201.145-17.461 11.64-32.597 4.094-5.391 8.892-12.717 10.664-16.28 2.95-5.933 3.221-7.281 3.218-16-.003-9.769-1.637-15.008-6.352-20.364-3.28-3.725-4.857-3.87-7.142-.661m-46.279 5.756c-.948 1.048-1.722 2.77-1.72 3.827.006 3.103 3.738 8.336 7.548 10.584 5.466 3.225 3.239 3.392-2.631.197-2.868-1.56-6.126-4.071-7.24-5.578-1.563-2.114-2.333-2.486-3.366-1.628-1.052.873-1.081 1.423-.135 2.563 1.49 1.795 12.917 7.569 18.32 9.256 10.477 3.271 17.835 10.411 19.045 18.478.653 4.355-.714 8.434-4.372 13.049-.871 1.1.645-.144 3.371-2.765 4.832-4.646 4.955-4.911 4.925-10.54-.047-8.508-3.444-13.764-12.297-19.024-11.385-6.763-16.794-11.537-18.345-16.19-1.335-4.006-1.432-4.075-3.103-2.229M126.531 45c.971 1.925 4.572 6.536 8.002 10.247 9.074 9.817 11.401 16.162 9.261 25.253-.511 2.17-.119 1.755 1.415-1.5 1.373-2.912 2.151-6.617 2.206-10.5.118-8.3-3.269-14.037-10.59-17.938-2.929-1.56-6.84-4.238-8.692-5.949l-3.367-3.113 1.765 3.5M89.992 59.51c-1.14 1.374-.948 1.992 1.338 4.297 1.468 1.481 6.157 4.493 10.42 6.693 4.891 2.524 7.88 4.699 8.101 5.896.282 1.518-.017 1.732-1.5 1.072-1.018-.453-5.248-1.081-9.4-1.396-8.206-.622-12.294-2.535-14.157-6.625-.613-1.346-1.387-2.447-1.72-2.447-.332 0-6.108 5.517-12.835 12.26l-12.23 12.26 34.455 34.444 34.454 34.443 4.651-.286c3.893-.239 5.102.148 7.431 2.379 1.778 1.703 3.024 2.27 3.455 1.573 1.418-2.295-.879-5.373-7.869-10.542-19.018-14.064-23.719-26.546-14.996-39.82 1.37-2.084 5.51-7.034 9.201-11 9.354-10.05 11.659-13.176 5.176-7.018-3.007 2.857-8.375 7.357-11.93 10-3.555 2.644-7.493 6.336-8.75 8.205-2.839 4.218-2.995 10.291-.395 15.391 2.536 4.973.847 4.714-2.889-.443-5.752-7.941-5.882-15.288-.376-21.208 1.464-1.574 6.422-4.591 11.018-6.704 4.595-2.114 8.355-4.1 8.355-4.414 0-.314-1.328.115-2.95.954-1.623.839-3.986 1.524-5.25 1.522-2.996-.005-8.36-3.306-9.828-6.048-2.412-4.507 1.446-12.595 5.621-11.786 2.635.511 2.788 2.514.184 2.42-3.141-.113-3.705 3.851-.771 5.421 3.489 1.867 6.994-1.076 6.994-5.871 0-4.806-1.693-6.357-9.844-9.016-8.333-2.718-12.207-5.209-17.481-11.237-3.872-4.426-4.498-4.798-5.683-3.369m41.683 103.253c-1.734.392-1.739.509-.095 2.325 2.043 2.258 5.42 2.537 5.42.447 0-1.819-2.89-3.323-5.325-2.772m65.372 3.187c-4.316 4.62-7.963 20.508-8.044 35.05-.041 7.502-2.762 13.458-7.293 15.97-2.45 1.358-2.868 1.361-3.72.03-.528-.825-.966-3.145-.975-5.156-.013-3.187.246-3.589 2.018-3.125 4.308 1.126 8.013-6.273 4.767-9.519-3.352-3.352-7.181.094-10.638 9.575-2.561 7.024-5.385 10.115-7.579 8.294-.8-.664-2.672-1.533-4.159-1.931l-2.703-.723 5.718-6.176c3.145-3.397 5.438-6.629 5.096-7.182-.358-.579-2.45-.756-4.927-.417-3.408.467-4.435.253-4.925-1.025-1.17-3.049-2.938-1.789-2.296 1.635.477 2.544-.205 4.86-3.139 10.655-2.061 4.072-4.198 7.222-4.748 6.999-.59-.238-.87-3.763-.683-8.594.344-8.858-.727-12.31-3.817-12.31-2.129 0-3.654 2.223-6.172 9-1.652 4.444-1.674 4.46-1.75 1.25-.114-4.76-2.188-3.928-5.12 2.053-1.422 2.903-3.34 5.34-4.357 5.535-1.659.32-1.784-.368-1.458-7.978.313-7.304.142-8.37-1.393-8.668-1.389-.269-1.75.36-1.75 3.053 0 4.133-2.75 13.755-3.932 13.755-1.435 0-1.938-2.548-1.358-6.877.499-3.714.342-4.123-1.578-4.123-1.173 0-2.132.597-2.132 1.326 0 1.344-4.056 5.674-5.314 5.674-.378 0-.686-1.475-.686-3.277 0-4.014-2.436-7.723-5.071-7.723-1.136 0-2.79 1.365-3.94 3.25-1.09 1.787-1.983 2.688-1.985 2-.009-2.849-3.043-.95-4.795 3-2.151 4.851-4.587 7.252-6.291 6.199-.821-.507-.972-2.894-.508-8.022l.662-7.299-3.61-1.713c-3.479-1.651-3.681-1.64-5.607.285-4.488 4.488-4.104 15.3.543 15.3 1.211 0 2.742-.54 3.402-1.2.933-.933 1.2-.857 1.2.345 0 .85.926 2.383 2.059 3.408 2.482 2.246 4.297 1.4 7.817-3.647l2.376-3.406-.546 5.671c-.359 3.734-2.265 9.557-5.581 17.048-6.057 13.682-7.172 18.966-4.602 21.807 2.545 2.811 5.983 2.488 8.256-.776 3.286-4.719 4.387-9.372 4.949-20.923.51-10.462.659-11.102 2.352-10.045 2.151 1.343 5.034-.793 6.889-5.104.634-1.473 2.7-3.67 4.592-4.882 3.389-2.172 3.439-2.175 3.439-.184 0 5.054 4.246 7.706 7.009 4.377 1.114-1.342 1.39-1.325 2.467.147 1.778 2.432 5.888 1.033 8.461-2.879l2.142-3.257-.29 3.47c-.217 2.609.132 3.556 1.406 3.813 1.26.254 1.989-.764 2.843-3.97 1.604-6.023 5.036-13.813 6.085-13.813.482 0 .884 4.162.892 9.25.017 10.327.636 12.077 4.098 11.587 1.869-.264 3.32-2.175 6.685-8.806 4.118-8.114 4.445-8.474 7.798-8.591l3.499-.121-3.398 3.59c-6.444 6.809-8.539 11.385-4.759 10.397 1.065-.279 2.966.213 4.222 1.094 3.619 2.535 5.534 1.921 8.274-2.65 2.321-3.872 2.548-4.019 2.557-1.655.01 2.838 2.743 5.905 5.261 5.905 2.112 0 7.479-4.576 8.262-7.044.85-2.679 2.486-2.468 2.486.321 0 3.006 2.673 6.723 4.834 6.723 2.756 0 5.937-2.752 8.772-7.591 3.655-6.236 2.422-6.582-1.421-.399-5.195 8.356-8.199 7.871-8.971-1.448-.404-4.867-.098-6.067 2.627-10.314 7.02-10.94 12.032-25.921 10.592-31.658-.623-2.484-3.821-5.59-5.754-5.59-.482 0-2.116 1.327-3.632 2.95M127 168.677c0 4.619 2.823 7.523 7.313 7.523 4.799 0 8.158-2.239 9.598-6.397l1.145-3.303-4.254 4.24-4.253 4.241-4.775-4.703-4.774-4.703v3.102m70.934 1.74c-2.379 5.377-3.56 11.391-4.434 22.583l-.664 8.5 2.081-3c5.299-7.64 10.753-24.982 9.468-30.102-1.013-4.038-4.215-3.036-6.451 2.019m-138.363-.899c-1.283 1.384-3.174 5.465-4.202 9.067-1.762 6.173-2.012 6.513-4.369 5.918-1.375-.348-3.175-.595-4-.549-.825.046-3.3.187-5.5.314-3.61.209-3.977.013-3.762-2.018.131-1.238-.206-2.25-.75-2.25-.543 0-.988 1.135-.988 2.521 0 3.403 3.99 5.299 7.98 3.793 1.989-.751 3.84-.76 6.18-.029l3.34 1.042-.901 11.626C51.64 211.338 52.269 218 54.398 218c.939 0 1.499-2.736 1.991-9.737 1.093-15.542 2.88-14.683 7.127 3.428 2.903 12.381 5.23 16.956 9.122 17.933 2.076.521 3.102.181 4.441-1.473.958-1.183 2.852-2.151 4.209-2.151 3.048 0 4.971-2.168 4.539-5.117-.369-2.515-2.827-3.862-2.827-1.55 0 .825.51 1.67 1.134 1.878.726.242.5 1.012-.629 2.141-.97.97-2.38 1.512-3.134 1.206l-2.871-1.165c-1.1-.445-1.5.073-1.5 1.941 0 1.401-.434 2.816-.964 3.143-2.21 1.366-4.844-3.635-7.386-14.023-1.461-5.969-3.514-12.499-4.563-14.511l-1.907-3.659 3.465-1.652c5.795-2.763 8.161-11.21 4.418-15.771-2.769-3.374-4.802-1.81-9.242 7.105-3.67 7.37-3.677 7.377-3.104 2.961.402-3.104 1.589-5.563 3.973-8.229 4.399-4.92 5.75-8.436 4.391-11.42-1.335-2.931-2.624-2.875-5.51.24m1.011 2.732c-.724 1.787-1.629 4.566-2.012 6.175-.595 2.499-.482 2.747.775 1.704 1.797-1.492 4.655-7.343 4.655-9.53 0-2.739-2.039-1.754-3.418 1.651m2.505 10.11c-1.142 1.848-2.734 5.223-3.538 7.5-1.343 3.807-1.323 4.137.245 4.108 3.945-.073 8.206-5.885 8.206-11.191 0-4.822-2.081-4.999-4.913-.417m14.948 18.574c-1.265 2.364-1.373 10.739-.148 11.496 2.645 1.635 5.996-9.689 3.582-12.104-1.76-1.76-2.209-1.68-3.434.608m101.126 1.613c-1.612 3.537-1.46 4.453.741 4.453 1.885 0 4.588-5.177 3.35-6.415-1.278-1.278-2.989-.458-4.091 1.962m-78.053.823c-1.287 1.55-4.081 10.304-4.097 12.835-.009 1.399.428 1.265 2.444-.75 1.35-1.35 2.925-2.455 3.5-2.455 1.27 0 1.417-9.652.158-10.43-.487-.301-1.39.059-2.005.8m-.403 13.068c-1.851 1.851-2.291 4.562-.74 4.562 1.236 0 3.277-3.775 2.805-5.189-.216-.649-1.039-.399-2.065.627m8.79 4.976c-5.045 5.045-3.888 11.671 2.592 14.841 6.444 3.152 12.913-1.123 12.913-8.533 0-7.539-10.146-11.667-15.505-6.308m.499 2.32c-5.248 6.672 3.068 15.583 9.843 10.547 3.346-2.488 4.178-8.502 1.574-11.379-2.717-3.003-8.746-2.563-11.417.832m66.006-.175c0 .857.45 1.281 1 .941.55-.34 1-1.041 1-1.559s-.45-.941-1-.941-1 .702-1 1.559m-86.91 10.514c-2.425 5.735-4.624 12.604-4.885 15.264-.454 4.608-.366 4.822 1.859 4.5 1.316-.19 3.1-1.652 4.09-3.351 2.121-3.644 4.081-15.463 3.655-22.049l-.309-4.791-4.41 10.427m46.565-7.244c-3.942 4.356.514 11.96 6.302 10.754l2.543-.53-2.332 1.163c-1.801.898-2.791.876-4.347-.096-2.658-1.659-3.877-.366-1.378 1.462 2.829 2.069 5.321 1.745 8.122-1.056 2.031-2.031 2.442-3.356 2.299-7.406-.163-4.616-.365-4.97-3.144-5.526-4.749-.95-6.303-.712-8.065 1.235m15 0c-3.393 3.749-1.185 10.427 3.4 10.28 7.034-.225 6.945-.152 6.945-5.707 0-4.515-.285-5.245-2.25-5.772-3.921-1.051-6.39-.685-8.095 1.199m15.095-1.14c-1.395.365-1.75 1.557-1.75 5.884 0 2.985.45 5.427 1 5.427s1-2.281 1-5.07c0-4.685.171-5.045 2.25-4.75 1.92.273 2.295 1.017 2.555 5.07.404 6.297 2.195 6.121 2.195-.215 0-3.885-.421-5.19-1.934-6-2.012-1.077-2.418-1.103-5.316-.346m15.905 1.14c-3.251 3.592-1.532 9.123 3.313 10.661 2.121.673 6.032-.964 6.032-2.525 0-1.275-.623-1.217-3.017.278-2.971 1.855-5.483-.138-5.483-4.352 0-3.334.071-3.39 4.236-3.306 3.425.069 4.023-.17 3.127-1.25-1.596-1.923-6.275-1.642-8.208.494M195 227c-1.1 1.1-2 3.092-2 4.427 0 3.161 4.661 6.938 7.462 6.048 1.121-.356 2.825-.637 3.788-.623 1.45.02 1.75-.887 1.75-5.289 0-5.151-.096-5.332-3.125-5.938-4.768-.954-5.711-.789-7.875 1.375m-68 4.652c0 2.941.45 5.348 1 5.348s1-1.557 1-3.461c0-2.239.749-4.159 2.12-5.437l2.121-1.975-3.121.089c-3.093.088-3.12.134-3.12 5.436m49-.152c0 3.025.45 5.5 1 5.5s1-2.475 1-5.5-.45-5.5-1-5.5-1 2.475-1 5.5m-39.333-3.833c-.367.366-.667 1.926-.667 3.464 0 5.273 7.334 6.371 8.609 1.289.345-1.373.073-3.098-.62-3.933-1.248-1.504-6.095-2.047-7.322-.82m14.328 1.342c-.899 1.679-.803 2.636.457 4.558 2.937 4.483 8.001 2.246 7.37-3.257-.269-2.344-.85-2.861-3.506-3.118-2.414-.234-3.458.205-4.321 1.817m45.205-.809c-3.574 3.574.729 9.065 5.426 6.924 4.213-1.919 2.589-8.124-2.126-8.124-1.155 0-2.64.54-3.3 1.2" fill="#1976D2" fill-rule="evenodd"/><path fill-opacity=".225" d="M149.141 5.327c-.714 2.295-2.214 5.659-3.333 7.475-1.932 3.134-2.13 3.217-3.896 1.618-1.813-1.64-1.81-1.755.114-4.456 2.619-3.679 2.541-4.954-.099-1.599-2.251 2.862-2.739 3.04-4.78 1.747-1.108-.702-1.124-1.288-.087-3.235 1.118-2.096 1.087-2.228-.259-1.118-1.032.85-6.084 1.336-15.593 1.5-12.423.213-14.389.482-16.824 2.302-3.912 2.923-4.346 4.755-.808 3.41 1.511-.574 8.5-.952 15.531-.84 9.168.147 13.294-.162 14.588-1.093.993-.715.39.061-1.34 1.723-3.738 3.593-8.124 4.365-22.956 4.037-11.765-.26-14.07.719-17.571 7.467-2.605 5.019-3.71 19.88-1.952 26.246.955 3.461.85 4.208-.831 5.889-1.9 1.9-1.934 1.891-2.574-.659-.357-1.422-.496-5.556-.31-9.187.275-5.347.11-6.288-.867-4.947-1.75 2.402-3.487 11.704-3.165 16.944l.278 4.517-14.2 14.225-14.2 14.225 35.414 35.403c35.277 35.266 35.407 35.412 33.829 37.82-.871 1.329-1.583 4.475-1.583 6.991 0 3.987.469 5.005 3.652 7.921 3.075 2.819 4.404 3.346 8.416 3.343 6.478-.005 10.861-2.828 13.439-8.657 1.439-3.252 1.862-5.712 1.439-8.357-.42-2.629-.171-4.104.835-4.939 1.188-.985 1.549-.574 2.106 2.395.659 3.509.474 5.016-1.11 9.062-.769 1.963-.744 1.965 1.35.128 3.082-2.704 5.531-9.81 4.937-14.325l-.499-3.803 31.384-31.505 31.383-31.506-35.905-35.895-35.905-35.895 1.855-3.599c2.119-4.113 3.622-13.57 2.287-14.395-.49-.303-1.476 1.326-2.19 3.622M134 16.492c-1.925 1.249-4.625 3.513-6 5.03l-2.5 2.76 3-.722c4.257-1.024 12.5-4.67 12.5-5.528 0-.397-.787-1.417-1.75-2.266-1.59-1.403-2.07-1.337-5.25.726m-19.301 6.069c-4.841 1.328-10.331 3.582-12.201 5.008-6.051 4.615-10.444 16.815-7.644 21.228 1.552 2.447 3.313-1.44 3.483-7.69.14-5.134.578-6.41 3.103-9.045 3.784-3.949 9.973-6.923 15.431-7.415 2.669-.24 5.127-1.2 6.444-2.518 2.595-2.594 2.375-2.583-8.616.432m24.801 1.494c-2.478 1.172-6.235 1.903-9.875 1.919L123.75 26l.625 3.125c.344 1.719.625 4.644.625 6.5 0 2.889.343 3.375 2.383 3.375 1.591 0 2.569.708 2.941 2.13.372 1.423 1.075 1.931 2.116 1.531.939-.36 1.56-.06 1.56.754 0 .743.9 1.587 2 1.875 1.1.287 2 1.24 2 2.116 0 2.412 3.454 1.924 6.897-.973l3.051-2.567 2.025 3.317c3.289 5.389 4.265 9.595 3.865 16.658-.476 8.415-4.427 16.985-15.652 33.953-9.133 13.807-10.622 17.676-10.66 27.706-.032 8.578 1.124 10.958 11.901 24.494 6.195 7.781 8.216 9.717 9.25 8.859.728-.604 1.323-1.487 1.323-1.962 0-.476-3.791-4.865-8.425-9.754-9.058-9.559-11.704-15.001-11.458-23.569.112-3.895.156-3.834 1.026 1.423 1.265 7.634 4.566 12.06 13.851 18.565 4.397 3.082 8.429 6.355 8.958 7.274.801 1.391 6.026-3.388 31.251-28.578l30.29-30.249-34.991-35.001c-19.245-19.251-35.444-34.966-35.997-34.921-.553.044-2.805.933-5.005 1.974m-28.48 3.697c-4.297 2.158-8.02 7.536-8.02 11.583v3.039l3.07-2.937c1.689-1.615 3.954-4.365 5.034-6.111 1.081-1.745 3.412-4.1 5.18-5.233 3.137-2.009 3.155-2.06.716-2.075-1.375-.008-4.066.772-5.98 1.734m41.053 10.883c-2.464 3.131-2.533 3.738-.611 5.334 3.153 2.616 5.874 12.224 5.958 21.031.095 10.088-1.584 14.314-11.315 28.485C139.044 103.768 136 112.174 136 121.393c0 7.974 3.039 14.377 8 16.855 6.671 3.333 17.396 1.618 19.97-3.193 2.705-5.054-.271-12.055-5.125-12.055-2.024 0-2.055.111-.5 1.829 4.162 4.598.35 9.171-7.644 9.171-3.999 0-5.355-.5-7.692-2.837-4.701-4.701-5.414-17.311-1.451-25.649 1.042-2.193 5.438-8.718 9.77-14.5 9.461-12.63 12.094-17.588 13.713-25.817 1.235-6.277.591-12.837-1.897-19.336-1.115-2.913-6.875-9.861-8.175-9.861-.453 0-1.757 1.186-2.896 2.635M125 41.915c0 2.545 3.432 7.571 10.026 14.682 7.052 7.606 8.958 11.532 8.968 18.475.016 9.709-5.768 17.86-20.561 28.979-5.207 3.913-10.213 8.54-11.123 10.282-1.948 3.725-2.084 11.349-.264 14.762 1.188 2.229 1.154 2.3-.455.972-2.826-2.332-5.591-8.701-5.591-12.879 0-6.579 3.216-10.062 14.256-15.44 6.199-3.02 11.576-6.507 14.75-9.566 4.739-4.568 4.994-5.081 4.994-10.03 0-5.823-1.985-11.436-5.298-14.982-1.211-1.297-5.326-4.185-9.144-6.42-8.958-5.242-15.155-11-16.622-15.443l-1.165-3.532-2.561 2.56-2.561 2.561 1.86 4.125c1.023 2.268 2.963 4.992 4.31 6.052 1.348 1.06 1.989 1.927 1.424 1.927-.565 0-3.274-2.021-6.021-4.49-3.996-3.593-5.214-4.225-6.095-3.163-2.128 2.565 4.277 6.701 19.411 12.536 9.647 3.719 14.873 8.511 17.004 15.589 1.312 4.362 1.277 5.148-.399 8.938-3.751 8.479-11.777 11.899-19.071 8.127-3.22-1.665-4.072-3.327-4.072-7.944 0-4.086 3.98-8.262 6.699-7.029 1.535.696 1.407.871-.864 1.185-3.435.474-4.202 2.576-1.954 5.353 3.253 4.016 9.119.181 9.119-5.96 0-2.748-3.426-5.768-8.691-7.659-12.345-4.436-18.448-8.613-22.169-15.173-.951-1.676-1.15-1.689-2.682-.176-1.539 1.52-1.539 1.812-.005 4.154.908 1.385 4.89 4.199 8.849 6.254 3.959 2.054 7.985 4.418 8.948 5.252 2 1.732 2.474 4.04.5 2.434-.687-.56-4.917-1.179-9.398-1.376-8.714-.382-10.835-1.428-14.306-7.055l-1.668-2.704-12.929 12.958L57.52 92.009l34.416 34.427 34.417 34.428 4.795-.568c4.42-.523 5.024-.324 7.712 2.555 2.469 2.643 3.101 2.901 4.113 1.682 1.932-2.328-1.236-6.346-10.203-12.94-11.494-8.453-16.533-16.158-16.694-25.527-.11-6.434 2.898-11.734 12.863-22.665 24.011-26.336 25.473-44.681 4.406-55.259-2.286-1.147-5.098-3.284-6.25-4.749-1.152-1.464-2.095-2.13-2.095-1.478m20.485 62.335c-1.933 4.741-3.101 16.159-2.073 20.255 1.512 6.026 10.332 9.918 13.588 5.995 1.038-1.251.901-1.5-.827-1.5-2.493 0-6.449-5.014-8.154-10.333-.699-2.179-1.068-7.035-.855-11.25.206-4.08.302-7.417.214-7.417s-.94 1.912-1.893 4.25m-15.308 58.437c-.985.393-.749 1.14.924 2.921 2.708 2.882 6.899 3.242 6.899.592 0-3.46-3.746-5.143-7.823-3.513m67.031 3.591c-4.05 4.312-6.736 15.903-7.643 32.987-.256 4.82-.782 9.277-1.169 9.904-.434.701-.261.865.449.426.756-.467 1.155.155 1.155 1.799 0 3.26 1.883 7.347 3.708 8.047 1.877.721 4.205-.589 7.288-4.099l2.497-2.842-3.051 2.75c-5.254 4.735-6.572 3.903-7.96-5.02-.574-3.688-.248-4.92 2.391-9.032C206.102 183.699 209.685 164 201.639 164c-1.26 0-3.254 1.025-4.431 2.278m1.88 1.338c-1.132 1.438-2.519 4.251-3.083 6.25-2.18 7.735-4.515 30.053-2.981 28.5 1.727-1.749 8.843-17.026 10.386-22.298 1.89-6.455 2.051-12.207.39-13.868-1.724-1.724-2.404-1.519-4.712 1.416m-72.733-.098c-.792 2.064 1.508 7.338 3.716 8.52 4.458 2.386 11.672.017 13.734-4.51 2.478-5.439 1.333-6.08-3.098-1.732l-4.292 4.213-3.91-4.004c-4.273-4.376-5.271-4.779-6.15-2.487m-67.139 2.935c-1.061 1.349-2.488 4.611-3.171 7.25-.682 2.638-1.407 5.36-1.611 6.047-.461 1.551-4.641 1.643-6.15.134-.821-.821-1.732-.656-3.45.623-1.653 1.231-1.8 1.557-.505 1.117 1.007-.342 3.516-.353 5.577-.023l3.747.599-.458 15.9c-.337 11.684-.15 15.9.705 15.9 1.844 0 2.058-1.59 2.398-17.746.309-14.72.408-15.341 2.858-18 4.302-4.669 5.844-7.565 5.844-10.977 0-2.569-.416-3.277-1.927-3.277-1.061 0-2.796 1.104-3.857 2.453m2.008-.203c-1.549 1.899-4.243 11.75-3.212 11.75 1.364 0 5.988-8.369 5.988-10.838 0-2.41-1.224-2.812-2.776-.912m1.452 10.723c-1.425 1.693-3.35 5.49-4.279 8.437-1.644 5.215-1.635 5.418.346 7.545 1.12 1.202 2.523 4.066 3.118 6.365L65.147 216c2.139 8.25 5.767 14 8.832 14 .623 0-.018-1.012-1.424-2.25-1.996-1.756-3.218-4.884-5.57-14.25-1.657-6.6-3.907-13.219-4.999-14.71-2.489-3.395-2.48-3.79.091-3.79 1.142 0 3.416-1.339 5.053-2.976 2.662-2.663 2.944-3.532 2.673-8.25-.258-4.493-.616-5.319-2.42-5.576-1.376-.197-3.024.775-4.707 2.775m.348 1.209c-2.627 4.295-5.47 11.706-4.761 12.414.964.964 6.655-2.541 8.367-5.154.907-1.384 1.698-4.172 1.759-6.196.152-5.042-2.598-5.588-5.365-1.064m-26.357-1.515c-.367.366-.653 1.379-.637 2.25.025 1.3.221 1.257 1.092-.242 1.077-1.852.765-3.228-.455-2.008m38.782 20.801c-1.705 4.081-1.855 7.905-.414 10.598 1.137 2.124 4.439 2.595 5.553.791.452-.73 1.206-.189 2.091 1.5 1.836 3.504 3.587 3.474 2.252-.038-.696-1.83-.688-4.225.025-7.549 1.395-6.504 1.357-6.77-.956-6.77-1.1 0-2-.45-2-1s-1.148-1-2.551-1c-1.966 0-2.883.796-4 3.468m67.239-1.676c-.928 1.026-1.688 2.217-1.688 2.648 0 .43.862-.281 1.916-1.579l1.915-2.361.715 2.836c.393 1.56.474 5.832.18 9.494-.771 9.598 1.665 12.885 5.869 7.92 1.903-2.248 1.903-2.248-.174-.5-1.143.963-2.365 1.75-2.716 1.75-.35 0-.765-4.832-.921-10.738-.232-8.79-.567-10.793-1.846-11.037-.858-.165-2.321.541-3.25 1.567m14.822-.808c-1.182 1.912 1.492 3.897 5.673 4.212l4.028.304-4.234 5-4.233 5 5.128-5.176c6.391-6.45 6.59-8.016.954-7.479-3.088.295-4.495-.04-5.404-1.283-.825-1.128-1.455-1.318-1.912-.578m21.226.266c-.905.688-2.542 3.37-3.638 5.961-1.756 4.149-1.846 5.223-.758 9 1.064 3.692 1.651 4.33 4.217 4.585 2.311.23 3.65-.444 5.962-3l2.981-3.296-3.151 2.842c-1.75 1.579-3.973 2.68-5 2.477-1.576-.311-1.849-1.345-1.849-7.009 0-5.348.445-7.245 2.28-9.727 2.347-3.174 1.857-4.036-1.044-1.833m-101.758 3.315c-2.187 6.629 1.089 13.915 3.898 8.667 1.805-3.373 2.408-9.185 1.115-10.743-2.021-2.435-3.762-1.714-5.013 2.076m45.898 3.777c-1.353 6.988-1.327 7.372.642 9.471 1.129 1.203 2.521 2.187 3.093 2.187 1.134 0 4.643-3.603 5.842-6 .413-.825-.466-.021-1.953 1.788-2.245 2.729-2.958 3.077-4.2 2.046-1.199-.995-1.363-2.671-.823-8.432.9-9.608-.811-10.305-2.601-1.06m60.833-5.345c.288 1.1-.214 3.125-1.116 4.501-.901 1.376-1.195 2.502-.651 2.502 2.3 0 4.138-7.214 2.151-8.442-.498-.309-.671.339-.384 1.439M99.89 203.25c-1.162 2.214-1.148 2.22.885.417 2.008-1.782 2.096-1.777 3.145.184 2.089 3.903.574 13.512-2.637 16.723-1.522 1.522-1.51 1.616.171 1.284 4.271-.843 7.327-13.663 4.511-18.924-1.398-2.612-4.627-2.445-6.075.316m-5.926 3.031c-.304 10.246-.729 15.578-1.37 17.219-.644 1.646-.577 1.734.377.5.893-1.156 1.071 1.043.776 9.593-.32 9.246-.789 11.91-2.815 16-1.845 3.722-2.963 4.889-4.632 4.833-1.21-.041-1.971.297-1.691.75.856 1.385 2.991.927 5.734-1.231 3.551-2.793 5.501-9.957 6.303-23.158.438-7.222.98-10.464 1.602-9.597.682.949.78.812.356-.496-.371-1.148.306-2.695 1.861-4.25 1.344-1.344 2.047-2.444 1.562-2.444-.485 0-1.861 1.238-3.057 2.75l-2.176 2.75.232-5c.128-2.75.174-5.739.103-6.643-.15-1.913-3.111-3.387-3.165-1.576m19.172 2.511c-2.095 3.286-2.131 3.498-.312 1.859 2.035-1.833 2.054-1.813 2.364 2.5.273 3.799.628 4.384 2.812 4.626 2.163.24 2.264.132.75-.8-1.321-.812-1.75-2.413-1.75-6.527 0-2.997-.338-5.431-.75-5.408-.412.024-1.814 1.711-3.114 3.75m20.681-1.081c-.695 3.609.398 9.289 1.788 9.289.767 0 1.395-.413 1.395-.918 0-.505.301-1.704.67-2.664.44-1.148.289-1.511-.441-1.06-.771.477-.936-.391-.539-2.836.449-2.766.238-3.522-.986-3.522-.856 0-1.706.77-1.887 1.711m-44.565 6.89c-1.236 1.41-1.725 2.39-1.086 2.177 1.078-.359 4.535-4.8 3.706-4.76-.205.01-1.384 1.172-2.62 2.583m68.345 1.008c-.902 2.35-.728 2.745.692 1.566.929-.771 1.977-.676 3.75.338 4.587 2.625 4.985 2.712 6.528 1.431.848-.704 1.998-2.217 2.555-3.362.823-1.692.649-1.632-.927.324-1.074 1.333-2.554 2.154-3.317 1.841a531.564 531.564 0 01-5.031-2.129c-3.303-1.414-3.711-1.415-4.25-.009M84 220.5c1.899 2.288-.614 4.827-4.089 4.132-2.169-.434-2.813-.114-3.267 1.62-.714 2.731-.037 3.562.787.966.431-1.359 1.283-1.804 2.869-1.501 1.416.271 2.942-.327 4.099-1.606 1.882-2.079 1.591-5.111-.49-5.111-.831 0-.806.419.091 1.5m26.077 1.089c-6.315 5.313-2.741 15.411 5.454 15.411 4.784 0 9.469-4.454 9.469-9 0-2.152-.928-4.082-2.923-6.077-3.727-3.726-7.833-3.841-12-.334m2.238-.582c-4.737 1.909-5.739 8.66-1.86 12.538 3.995 3.996 9.604 2.986 12.382-2.229 1.798-3.377 1.411-5.222-1.76-8.393-3.011-3.01-4.978-3.441-8.762-1.916M176 223c0 .55.477 1 1.059 1s.781-.45.441-1-.816-1-1.059-1-.441.45-.441 1m-40 4c-2.428 2.428-2.537 4.789-.364 7.891 1.379 1.968 2.252 2.253 5.549 1.811 3.405-.457 3.75-.329 2.66.984-.874 1.054-2.322 1.343-4.799.957-3.283-.511-3.401-.443-1.598.907 2.193 1.644 5.421 1.05 7.302-1.342 1.441-1.833 1.734-12.625.319-11.751-.512.317-1.213.118-1.559-.441-1.053-1.703-5.391-1.135-7.51.984m15.25-.492c-2.785 1.987-2.981 6.521-.384 8.871 1.262 1.142 3.205 1.597 5.999 1.405l4.132-.284.002-5.083c0-3.334-.429-5.127-1.249-5.21-.687-.07-2.375-.391-3.75-.715-1.533-.361-3.371.032-4.75 1.016m14.5-.819c-1.432.375-1.721 1.488-1.593 6.134l.157 5.677.593-5c.536-4.521.853-5.03 3.308-5.313 2.859-.33 3.242.352 4.111 7.313.255 2.047.422 1.54.524-1.595.108-3.319-.358-5.055-1.679-6.25-1.863-1.686-2.34-1.771-5.421-.966M182 227c-5.068 5.068.457 12.064 7.418 9.393.87-.334 1.582-.97 1.582-1.413 0-.444-1.327-.305-2.95.307-2.477.935-3.278.816-5-.742-1.127-1.02-2.05-2.46-2.05-3.2 0-2.268 3.985-5.568 5.827-4.826 3.931 1.582 4.616 1.598 2.732.063-2.615-2.131-5.15-1.991-7.559.418m13.073.635c-2.494 3.17-2.562 4.221-.467 7.212 1.35 1.928 2.333 2.24 6.176 1.96 4.345-.316 4.568-.48 4.527-3.319-.089-6.193-.335-7.59-1.24-7.031-.512.317-1.213.118-1.559-.441-1.199-1.941-5.348-1.038-7.437 1.619m-105.394 1.911c-2.349 4.927-2.018 5.765.437 1.11 1.116-2.115 1.852-4.022 1.636-4.238-.217-.216-1.149 1.192-2.073 3.128m38.489 2.417c.143 4.713.229 4.942.574 1.537.223-2.2 1.095-4.763 1.938-5.696 1.395-1.544 1.343-1.681-.574-1.537-1.891.142-2.089.724-1.938 5.696M137 228c-2.408 2.408-2.447 2.917-.443 5.777 2.744 3.919 8.443 2.352 8.443-2.322 0-2.254-2.834-5.455-4.829-5.455-.644 0-2.071.9-3.171 2m14.96-.169c-4.289 3.473-.399 9.395 5.038 7.67 3.162-1.004 3.768-5.462 1.042-7.67-1.244-1.007-2.612-1.831-3.04-1.831-.428 0-1.796.824-3.04 1.831m24.35 3.669c.005 3.3.192 4.529.415 2.732.222-1.797.218-4.497-.01-6-.229-1.503-.411-.032-.405 3.268m20.44-4.42c-2.01 1.171-2.349 5.921-.55 7.72.66.66 2.145 1.2 3.3 1.2 1.155 0 2.64-.54 3.3-1.2 1.901-1.901 1.458-6.592-.734-7.765-2.364-1.265-3.078-1.259-5.316.045M85.136 239.905c-1.175 2.731-2.106 6.232-2.07 7.78.048 2.042.457 1.359 1.493-2.488.785-2.916 1.917-6.217 2.515-7.335.598-1.118.888-2.233.643-2.478-.244-.245-1.406 1.79-2.581 4.521" fill="#1976D2" fill-rule="evenodd"/><path fill-opacity=".149" d="M148.59 7.64c-3.541 8.631-10.517 14.458-18.887 15.777-2.036.32-5.291.831-7.231 1.134-1.94.302-3.264.977-2.941 1.5.323.522.145.949-.395.949-1.735 0-7.157 5.139-8.825 8.365-.889 1.72-1.562 4.587-1.495 6.371.259 6.883 4.052 10.97 18.184 19.596 8.23 5.024 11.266 8.722 13.051 15.898 1.575 6.332.728 8.992-4.808 15.106l-4.676 5.164 4.34-4c7.5-6.913 10.292-15.863 7.716-24.727-1.217-4.186-3.169-7.15-8.705-13.224-6.467-7.094-10.798-14.002-9.556-15.244.263-.263 1.248.696 2.189 2.133.941 1.436 4.552 4.199 8.025 6.142 7.551 4.222 12.083 9.086 12.995 13.945 1.154 6.152-.063 13.793-3.299 20.706-1.702 3.638-2.797 6.946-2.433 7.352.364.406.17.458-.43.117-.939-.535-5.409 4.226-5.409 5.76 0 1.335 2.667-.192 4.295-2.46C148.244 82.928 154 69.366 154 61.71c0-4.663-2.191-12.032-4.48-15.07-1.36-1.805-1.49-1.797-4.365.25-3.752 2.671-6.83 2.71-7.66.095-.351-1.108-1.06-1.754-1.574-1.436-.514.318-1.205-.126-1.535-.986-.33-.859-1.399-1.563-2.376-1.563-.977 0-2.019-.928-2.316-2.062-.296-1.134-1.136-1.98-1.866-1.881-3.245.44-3.667-.241-3.993-6.443l-.335-6.386 6.754-.481c9.39-.668 15.433-3.898 18.521-9.898 1.63-3.168 2.257-5.848 2.039-8.719l-.314-4.146-1.91 4.656m-13.619-.562c-.879.58-5.748.711-12.092.326-11.794-.716-16.203.183-19.827 4.041l-2.243 2.387 4.286-1.477c3.322-1.144 6.783-1.322 15.395-.792 10.914.672 11.163.639 14.06-1.854 2.927-2.519 3.243-4.49.421-2.631m6.515 1.944c-.347.563-3.411 2.456-6.809 4.208-5.927 3.056-6.783 3.207-21.177 3.727-8.969.325-15.854 1.033-17.125 1.761-5.48 3.142-8.593 17.464-6.46 29.717 1.955 11.226 8.994 19.595 19.704 23.428 9.22 3.3 12.767 5.427 13.755 8.247 1.991 5.686-2.831 12.322-7.239 9.962-2.929-1.567-3.782-5.125-1.61-6.714.973-.712 2.223-1.014 2.777-.671.589.363.696.118.257-.591-1.256-2.033-4.946 1.179-5.969 5.195-1.055 4.145 1.212 8.782 4.174 8.536.955-.079 3.311-.013 5.236.146l3.5.29-3 .751c-2.679.671-2.586.719.871.448 2.129-.167 4.379-.816 5-1.442.842-.849.621-.956-.871-.42-2.14.769-2.064.638.942-1.633 1.214-.917 1.661-.999 1.191-.217-1.045 1.74.855 1.572 2.331-.206.664-.801.911-1.937.548-2.525-.363-.588-.082-.945.625-.794 2.126.454 3.384-6.543 2.005-11.147-2.218-7.402-8.543-12.574-19.642-16.062-7.842-2.464-15.647-7.289-18.114-11.196-5.492-8.701-.911-21.464 9.614-26.783 2.916-1.474 13.574-4.327 21.41-5.731 3.202-.574 11.98-6.135 13.887-8.797.988-1.38 1.577-2.509 1.309-2.509-.269 0-.772.46-1.12 1.022M107.97 27.75c-7.355 3.846-9.478 7.019-9.439 14.106.026 4.668.537 6.366 2.812 9.35 1.53 2.005 3.99 4.418 5.469 5.364l2.688 1.718-2.125-2.394c-3.565-4.016-4.523-6.778-4.622-13.325-.145-9.558 3.53-14.48 12.368-16.567 2.993-.706 3.078-.809.743-.9-1.45-.056-5.002 1.136-7.894 2.648m44.182 11.037c-1.958 2.75-1.959 2.816-.063 5.249 3.645 4.678 6.204 15.363 5.7 23.8-.511 8.552-2.222 12.669-9.543 22.952-6.202 8.712-3.112 7.368 4.11-1.788 8.427-10.685 12.006-18.677 12.489-27.89.213-4.064-.15-9.239-.808-11.5-1.469-5.05-5.343-11.168-7.955-12.566-1.613-.863-2.288-.564-3.93 1.743M83.874 46.25c-.662 2.337-1.179 7.442-1.15 11.344.094 12.501 6.578 19.231 17.174 17.825 2.946-.391 5.654-.194 6.962.506 1.381.739 2.14.782 2.14.121 0-.563-3.487-2.783-7.75-4.933-11.806-5.955-15.728-11.652-15.742-22.863-.004-3.437-.103-6.25-.219-6.25-.117 0-.753 1.913-1.415 4.25m114.468 119.223c-1.157.81-2.831 3.291-3.72 5.513-3.583 8.956-5.898 32.109-4.125 41.264 1.193 6.163 2.02 4.268 1.746-4-.332-9.991 1.366-27.571 3.288-34.043.951-3.201 2.625-6.002 4.562-7.632 3.236-2.723 1.828-3.609-1.751-1.102m6.944 6.027c.008 2.75.202 3.756.432 2.236.229-1.52.223-3.77-.014-5-.237-1.23-.425.014-.418 2.764m-145.725-1.234C57.698 173.109 55 180.668 55 183.042c0 .985-.562 2.018-1.25 2.296-.687.277-.776.54-.197.583.695.052.809 2.029.334 5.829-1.046 8.37-1.031 19.25.025 19.25 1.216 0 1.874-5.579 1.933-16.39.046-8.303.234-9.094 2.852-11.984 1.766-1.95 1.971-2.396.553-1.205-2.207 1.853-2.25 1.853-2.226-.016.013-1.048 1.088-4.493 2.388-7.655 2.516-6.118 2.561-7.164.149-3.484m144.215 9.234c-.35 1.65-.899 3.9-1.221 5-.321 1.1.12.485.981-1.367.861-1.852 1.41-4.102 1.22-5-.199-.944-.613-.368-.98 1.367m-140.371.75L61.5 182.5l2.25-1.905c2.114-1.79 2.705-2.595 1.905-2.595-.19 0-1.202 1.012-2.25 2.25m4.728-.409c1.92 3.075.215 8.646-3.699 12.083-3.844 3.375-3.83 3.669.094 1.881 1.442-.657 3.263-2.434 4.047-3.95 2.146-4.15 1.697-11.855-.69-11.855-.496 0-.385.828.248 1.841m131.069 11.681c-1.197 2.463-1.966 4.478-1.709 4.478.677 0 4.718-8.123 4.265-8.575-.209-.21-1.36 1.634-2.556 4.097M57 194.531c0 .258.897 1.366 1.994 2.463s2.746 4.697 3.664 8c.919 3.303 2.055 6.006 2.525 6.006 2.21 0-4.087-15.365-6.709-16.372-.811-.311-1.474-.354-1.474-.097m19.642 5.719c-2.081 3.335-2.76 7.283-1.704 9.917.772 1.926.946 1.456.999-2.694.035-2.836.742-5.997 1.62-7.25C78.413 199 78.873 198 78.58 198c-.294 0-1.166 1.012-1.938 2.25m69.218 6.497c.286 6.15.553 7.245 1.295 5.294 1.167-3.069.693-12.268-.655-12.715-.629-.208-.867 2.543-.64 7.421m11.14-6.722c0 .563 1.181 1.474 2.625 2.023 3.12 1.186 9.375.932 9.375-.38 0-.515-1.74-.645-3.928-.295-2.824.451-4.35.206-5.429-.873-1.752-1.752-2.643-1.912-2.643-.475m20.797.725c-2.413 2.789-3.659 7.701-2.883 11.366.694 3.281.738 3.22 1.456-2.022.407-2.974 1.402-6.686 2.211-8.25 1.679-3.248 1.407-3.628-.784-1.094m-94.202 1.459c-1.26 6.231-1.458 8.757-.722 9.212.444.275 1.256-1.976 1.804-5.002.549-3.026.634-5.727.19-6.001-.445-.275-1.017.531-1.272 1.791m39.998 2.803c-.366 2.757-.916 5.794-1.223 6.75-.439 1.366-.346 1.439.434.343.813-1.141 1.082-1.05 1.479.5.267 1.042.537.039.601-2.23.064-2.269.397-5.531.741-7.25.365-1.827.211-3.125-.371-3.125-.548 0-1.296 2.255-1.661 5.012m-20.164-2.441c.955.956 1.571 3.308 1.571 6 0 2.436.45 4.429 1 4.429s1-1.7 1-3.777c0-3.788-2.227-8.223-4.128-8.223-.558 0-.308.707.557 1.571m80.65.012c.048 1.165.285 1.402.604.605.289-.722.253-1.585-.079-1.917-.332-.332-.568.258-.525 1.312m-2.207 4.167c-1.243 1.586-1.208 1.621.378.378 1.666-1.307 2.195-2.128 1.372-2.128-.207 0-.995.787-1.75 1.75m-87.502 1.5c.331 1.238.609 2.588.616 3 .008.412.386.75.841.75.455 0 .628-1.35.386-3s-.891-3-1.443-3-.732 1.011-.4 2.25m20.82 1.5c-.098 2.732.125 3.343.822 2.25 1.184-1.856 1.288-6 .15-6-.461 0-.898 1.688-.972 3.75m19.397 0c.834 4.613 1.413 5.432 1.413 1.998 0-1.421.273-3.296.607-4.166.403-1.049.051-1.582-1.045-1.582-1.364 0-1.534.656-.975 3.75m-24.664 12.173c-3.936 3.936-4.005 8.775-.173 12.153l2.75 2.424-2.25-2.564c-4.463-5.087-1.98-12.325 4.774-13.914 3.271-.769 3.31-.823.649-.92-1.883-.068-3.803.874-5.75 2.821m10.42-.463c1.014.768 2.497 3.117 3.296 5.218l1.453 3.822-.558-3.434c-.58-3.574-3.048-7.089-4.939-7.034-.602.017-.266.66.748 1.428m16.062 5.79l-1.905 2.25 2.28-1.932c1.819-1.542 2.831-1.739 5-.976 2.232.785 2.72 1.56 2.72 4.323 0 1.995-.65 3.777-1.595 4.373-2.567 1.619-6.623.029-7.742-3.036-.633-1.733-1.034-2.104-1.084-1.002-.188 4.164 6.825 7.446 9.721 4.55.782-.782 1.2-.824 1.2-.122 0 1.999-2.962 3.555-5.938 3.118-1.626-.239-2.729-.066-2.45.385.932 1.509 6.06.839 7.733-1.01 1.025-1.132 1.655-3.545 1.655-6.339 0-3.863-.366-4.678-2.547-5.671-3.63-1.654-4.89-1.46-7.048 1.089m14.693-.348c-2.585 2.585-2.701 6.242-.269 8.443 2.077 1.88 6.711 2.209 7.737.548.477-.771.944-.696 1.544.25.539.852.865-.721.875-4.226.01-3.742-.397-5.625-1.235-5.71-.687-.07-2.443-.414-3.902-.765-1.946-.468-3.211-.079-4.75 1.46M182 227c-2.403 2.403-2.538 4.786-.443 7.777 1.519 2.169 6.746 3.157 7.79 1.473.255-.412-1.165-.75-3.157-.75-3.054 0-3.776-.434-4.606-2.772-.822-2.312-.621-3.136 1.213-4.97 1.962-1.962 2.549-2.07 5.451-1.008 2.94 1.076 3.066 1.049 1.311-.28-2.666-2.019-5.187-1.842-7.559.53m14.223-.443c-1.223.856-2.223 1.981-2.223 2.5 0 .519.9.043 2-1.057 1.1-1.1 2.675-2 3.5-2 .825 0 2.4.9 3.5 2 1.343 1.343 2 1.56 2 .661 0-1.194-3.925-3.661-5.825-3.661-.401 0-1.73.701-2.952 1.557m-68.055 5.407c.143 4.714.228 4.942.574 1.536.223-2.2 1.03-4.691 1.793-5.536 1.202-1.33 1.125-1.535-.574-1.535-1.732 0-1.941.646-1.793 5.535m23.487-4.135C148.348 231.482 150.198 236 155 236c4.88 0 6.802-5.059 3.171-8.345-2.377-2.151-4.462-2.095-6.516.174m13.012-1.162c-.367.366-.588 2.954-.492 5.75l.174 5.083.394-4.48c.217-2.465.869-5.052 1.448-5.75 1.081-1.302-.285-1.843-1.524-.603m5.583.413c1.225.714 1.802 2.429 1.925 5.72l.174 4.7.387-4.324c.382-4.281-.89-7.205-3.108-7.146-.621.017-.341.489.622 1.05m6.036 4.42c.008 2.75.202 3.756.432 2.236.229-1.52.223-3.77-.014-5-.237-1.23-.425.014-.418 2.764m-54.322 1.729c-.844 1.109-3.319 2.359-5.5 2.779-3.78.727-3.815.767-.77.877 2.999.108 9.559-3.994 8.306-5.194-.275-.263-1.191.429-2.036 1.538m72.036-.523c0 3.212 6.907 5.872 8.51 3.278.346-.559 1.047-.758 1.559-.441.512.316.931-.452.931-1.706v-2.282l-1.557 2.222c-2.004 2.863-5.882 2.863-7.886 0-.856-1.222-1.557-1.704-1.557-1.071" fill="#1976D2" fill-rule="evenodd"/></svg>